<mxfile host="app.diagrams.net" modified="2023-07-24T11:57:22.390Z" agent="Mozilla/5.0 (Macintosh; Intel Mac OS X 10_15_7) AppleWebKit/537.36 (KHTML, like Gecko) Chrome/114.0.0.0 Safari/537.36" version="21.6.3" etag="hnzwYElJ-_BsyN_3tX2w" type="github">
  <diagram name="第 1 页" id="94hxMQf1f1ccbsNXS2pD">
    <mxGraphModel>
      <root>
        <mxCell id="0" />
        <mxCell id="1" parent="0" />
      </root>
    </mxGraphModel>
  </diagram>
</mxfile>
